<svg id="Layer_1" data-name="Layer 1" xmlns="http://www.w3.org/2000/svg" viewBox="0 0 751.94 492.13"><defs><style>.cls-1,.cls-2{fill:#f2d1dd;}.cls-1{opacity:0.4;}.cls-2{opacity:0.6;}.cls-3{fill:#ffe1ef;}.cls-4{fill:none;stroke:#fff;stroke-miterlimit:10;stroke-width:0.5px;}.cls-5{fill:#494949;opacity:0.08;}.cls-6{fill:#cfd6dc;}.cls-7{fill:#eeeef0;}.cls-8{fill:#f7f8fa;}.cls-9{fill:#bdc2c6;}.cls-10{fill:#aaadaf;}</style></defs><title>1st-illu</title><path class="cls-1" d="M450.24,743.69l-311.78-180c-25.82-14.91-22.58-41,7.24-58.17L443,333.87c29.82-17.22,74.93-19.09,100.76-4.18l311.78,180c25.82,14.91,22.58,40.95-7.24,58.17L551,739.52C521.18,756.74,476.07,758.61,450.24,743.69Z" transform="translate(-121.03 -261.63)"/><path class="cls-2" d="M450.24,715.69l-311.78-180c-25.82-14.91-22.58-41,7.24-58.17L443,305.87c29.82-17.22,74.93-19.09,100.76-4.18l311.78,180c25.82,14.91,22.58,40.95-7.24,58.17L551,711.52C521.18,728.74,476.07,730.61,450.24,715.69Z" transform="translate(-121.03 -261.63)"/><path class="cls-3" d="M450.24,685.69l-311.78-180c-25.82-14.91-22.58-40.95,7.24-58.17L443,275.87c29.82-17.22,74.93-19.09,100.76-4.18l311.78,180c25.82,14.91,22.58,40.95-7.24,58.17L551,681.52C521.18,698.74,476.07,700.61,450.24,685.69Z" transform="translate(-121.03 -261.63)"/><line class="cls-4" x1="678.98" y1="10.75" x2="672.96" y2="12.03"/><polygon class="cls-5" points="648.8 293.37 638.52 299.31 487.65 386.58 477.52 392.45 477.41 392.51 456.72 380.78 415.38 357.35 306.93 295.87 481.09 195.31 593.89 261.27 648.8 293.37"/><polygon class="cls-5" points="317.98 302.68 387.6 341.74 397.41 335.89 329.57 295.99 317.98 302.68"/><polygon class="cls-5" points="483.12 209.75 552.74 248.81 562.55 242.96 494.71 203.06 483.12 209.75"/><polygon class="cls-5" points="648.8 293.37 638.52 299.31 582.46 267.86 593.89 261.27 648.8 293.37"/><polygon class="cls-5" points="487.65 386.58 477.52 392.45 456.72 380.78 415.17 357.47 415.38 357.35 426.76 350.77 487.65 386.58"/><g id="Bed"><polygon class="cls-6" points="496.87 206.41 485.28 213.1 485.28 89.97 496.87 83.28 496.87 206.41"/><polygon class="cls-7" points="485.28 213.1 473.68 206.41 473.68 83.28 485.28 89.97 485.28 213.1"/><polygon class="cls-8" points="496.87 83.28 485.28 76.59 473.68 83.28 485.28 89.97 496.87 83.28"/><polygon class="cls-6" points="482.52 186.18 327.64 275.6 327.64 264.3 482.52 174.88 482.52 186.18"/><polygon class="cls-8" points="319.18 259.4 474.05 169.99 482.52 174.88 327.65 264.29 319.18 259.4"/><polygon class="cls-7" points="327.64 274.43 319.18 269.53 319.18 259.4 327.64 264.3 327.64 274.43"/><polygon class="cls-7" points="571.71 229.86 486.01 180.38 486.01 170.55 571.71 220.03 571.71 229.86"/><polygon class="cls-8" points="571.71 220.01 486.01 170.53 494.52 165.62 580.22 215.1 571.71 220.01"/><polygon class="cls-6" points="580.22 224.95 571.71 229.86 571.71 220.02 580.22 215.11 580.22 224.95"/><polygon class="cls-7" points="337.27 254.48 334.3 252.76 334.3 189.93 337.27 191.65 337.27 254.48"/><polygon class="cls-9" points="340.25 252.76 337.27 254.48 337.27 191.65 340.25 189.93 340.25 252.76"/><polygon class="cls-8" points="340.25 189.93 337.27 188.21 334.3 189.93 337.27 191.65 340.25 189.93"/><polygon class="cls-7" points="352.65 245.81 349.68 244.09 349.68 181.26 352.65 182.98 352.65 245.81"/><polygon class="cls-9" points="355.63 244.09 352.65 245.81 352.65 182.98 355.63 181.26 355.63 244.09"/><polygon class="cls-8" points="355.63 181.26 352.65 179.54 349.68 181.26 352.65 182.98 355.63 181.26"/><polygon class="cls-7" points="366.12 237.46 363.15 235.74 363.15 172.91 366.12 174.63 366.12 237.46"/><polygon class="cls-9" points="369.1 235.74 366.12 237.46 366.12 174.63 369.1 172.91 369.1 235.74"/><polygon class="cls-8" points="369.1 172.91 366.12 171.19 363.15 172.91 366.12 174.63 369.1 172.91"/><polygon class="cls-7" points="380.54 229.82 377.57 228.1 377.57 165.27 380.54 166.99 380.54 229.82"/><polygon class="cls-9" points="383.52 228.1 380.54 229.82 380.54 166.99 383.52 165.27 383.52 228.1"/><polygon class="cls-8" points="383.52 165.27 380.54 163.55 377.57 165.27 380.54 166.99 383.52 165.27"/><polygon class="cls-7" points="395.48 222.2 392.5 220.49 392.5 157.66 395.48 159.37 395.48 222.2"/><polygon class="cls-9" points="398.45 220.49 395.48 222.2 395.48 159.37 398.45 157.66 398.45 220.49"/><polygon class="cls-8" points="398.45 157.66 395.48 155.94 392.5 157.66 395.48 159.37 398.45 157.66"/><polygon class="cls-7" points="409.42 213.53 406.45 211.82 406.45 148.99 409.42 150.71 409.42 213.53"/><polygon class="cls-9" points="412.4 211.82 409.42 213.53 409.42 150.71 412.4 148.99 412.4 211.82"/><polygon class="cls-8" points="412.4 148.99 409.42 147.27 406.45 148.99 409.42 150.71 412.4 148.99"/><polygon class="cls-7" points="422.4 206.04 419.43 204.33 419.43 141.5 422.4 143.22 422.4 206.04"/><polygon class="cls-9" points="425.38 204.33 422.4 206.04 422.4 143.22 425.38 141.5 425.38 204.33"/><polygon class="cls-8" points="425.38 141.5 422.4 139.78 419.43 141.5 422.4 143.22 425.38 141.5"/><polygon class="cls-7" points="433.73 198.9 430.76 197.18 430.76 134.35 433.73 136.06 433.73 198.9"/><polygon class="cls-9" points="436.71 197.18 433.73 198.9 433.73 136.06 436.71 134.35 436.71 197.18"/><polygon class="cls-8" points="436.71 134.35 433.73 132.63 430.76 134.35 433.73 136.06 436.71 134.35"/><polygon class="cls-7" points="446.1 191.77 443.12 190.05 443.12 127.22 446.1 128.94 446.1 191.77"/><polygon class="cls-9" points="449.07 190.05 446.1 191.77 446.1 128.94 449.07 127.22 449.07 190.05"/><polygon class="cls-8" points="449.07 127.22 446.1 125.51 443.12 127.22 446.1 128.94 449.07 127.22"/><polygon class="cls-7" points="458.27 184.44 455.29 182.72 455.29 119.89 458.27 121.61 458.27 184.44"/><polygon class="cls-9" points="461.24 182.72 458.27 184.44 458.27 121.61 461.24 119.89 461.24 182.72"/><polygon class="cls-8" points="461.24 119.89 458.27 118.17 455.29 119.89 458.27 121.61 461.24 119.89"/><polygon class="cls-7" points="470.19 178.44 467.22 176.72 467.22 113.89 470.19 115.61 470.19 178.44"/><polygon class="cls-9" points="473.17 176.72 470.19 178.44 470.19 115.61 473.17 113.89 473.17 176.72"/><polygon class="cls-8" points="473.17 113.89 470.19 112.18 467.22 113.89 470.19 115.61 473.17 113.89"/><polygon class="cls-7" points="495.54 173.14 492.45 171.36 492.45 106.1 495.54 107.89 495.54 173.14"/><polygon class="cls-9" points="498.63 171.36 495.54 173.14 495.54 107.89 498.63 106.1 498.63 171.36"/><polygon class="cls-8" points="498.63 106.1 495.54 104.32 492.45 106.1 495.54 107.89 498.63 106.1"/><polygon class="cls-7" points="509.46 181.1 506.38 179.31 506.38 114.06 509.46 115.84 509.46 181.1"/><polygon class="cls-9" points="512.55 179.31 509.46 181.1 509.46 115.84 512.55 114.06 512.55 179.31"/><polygon class="cls-8" points="512.55 114.06 509.46 112.28 506.38 114.06 509.46 115.84 512.55 114.06"/><polygon class="cls-7" points="524.42 188.79 521.33 187.01 521.33 121.75 524.42 123.53 524.42 188.79"/><polygon class="cls-9" points="527.51 187.01 524.42 188.79 524.42 123.53 527.51 121.75 527.51 187.01"/><polygon class="cls-8" points="527.51 121.75 524.42 119.97 521.33 121.75 524.42 123.53 527.51 121.75"/><polygon class="cls-7" points="539.15 198.44 536.06 196.66 536.06 131.4 539.15 133.18 539.15 198.44"/><polygon class="cls-9" points="542.24 196.66 539.15 198.44 539.15 133.18 542.24 131.4 542.24 196.66"/><polygon class="cls-8" points="542.24 131.4 539.15 129.62 536.06 131.4 539.15 133.18 542.24 131.4"/><polygon class="cls-7" points="555.38 207.56 552.29 205.77 552.29 140.52 555.38 142.3 555.38 207.56"/><polygon class="cls-9" points="558.47 205.77 555.38 207.56 555.38 142.3 558.47 140.52 558.47 205.77"/><polygon class="cls-8" points="558.47 140.52 555.38 138.73 552.29 140.51 555.38 142.3 558.47 140.52"/><polygon class="cls-7" points="572.17 153.42 486.47 103.94 486.47 94.11 572.17 143.59 572.17 153.42"/><polygon class="cls-8" points="572.17 143.57 486.47 94.09 494.99 89.17 580.68 138.65 572.17 143.57"/><polygon class="cls-6" points="580.68 148.5 572.17 153.42 572.17 143.58 580.68 138.66 580.68 148.5"/><polygon class="cls-6" points="336.9 244.33 487.87 157.17 567.2 202.97 416.22 290.13 336.9 244.33"/><polygon class="cls-10" points="567.2 226.91 416.22 314.07 416.22 290.13 567.2 202.97 567.2 226.91"/><polygon class="cls-7" points="416.22 314.07 336.9 268.27 336.9 244.41 416.22 290.21 416.22 314.07"/><polygon class="cls-6" points="594.06 261.27 582.47 267.97 582.47 144.84 594.06 138.15 594.06 261.27"/><polygon class="cls-7" points="582.47 267.97 570.87 261.27 570.87 138.15 582.47 144.84 582.47 267.97"/><polygon class="cls-8" points="594.06 138.15 582.47 131.45 570.87 138.15 582.47 144.84 594.06 138.15"/><polygon class="cls-6" points="580.14 226.24 425.26 315.66 425.26 304.36 580.14 214.94 580.14 226.24"/><polygon class="cls-8" points="416.8 299.47 571.67 210.05 580.14 214.94 425.27 304.36 416.8 299.47"/><polygon class="cls-7" points="425.26 315.66 416.8 310.76 416.8 299.47 425.26 304.36 425.26 315.66"/><polygon class="cls-7" points="437.73 294.08 435.11 292.57 435.11 237.13 437.73 238.65 437.73 294.08"/><polygon class="cls-9" points="440.36 292.57 437.73 294.08 437.73 238.65 440.36 237.13 440.36 292.57"/><polygon class="cls-8" points="440.36 237.13 437.73 235.62 435.11 237.13 437.73 238.65 440.36 237.13"/><polygon class="cls-7" points="451.3 286.44 448.68 284.92 448.68 229.49 451.3 231 451.3 286.44"/><polygon class="cls-9" points="453.93 284.92 451.3 286.44 451.3 231 453.93 229.49 453.93 284.92"/><polygon class="cls-8" points="453.93 229.49 451.3 227.97 448.68 229.49 451.3 231 453.93 229.49"/><polygon class="cls-7" points="463.18 279.07 460.56 277.55 460.56 222.12 463.18 223.64 463.18 279.07"/><polygon class="cls-9" points="465.81 277.55 463.18 279.07 463.18 223.64 465.81 222.12 465.81 277.55"/><polygon class="cls-8" points="465.81 222.12 463.18 220.61 460.56 222.12 463.18 223.64 465.81 222.12"/><polygon class="cls-7" points="475.91 272.33 473.28 270.81 473.28 215.38 475.91 216.89 475.91 272.33"/><polygon class="cls-9" points="478.53 270.81 475.91 272.33 475.91 216.89 478.53 215.38 478.53 270.81"/><polygon class="cls-8" points="478.53 215.38 475.91 213.86 473.28 215.38 475.91 216.89 478.53 215.38"/><polygon class="cls-7" points="489.09 265.61 486.46 264.09 486.46 208.66 489.09 210.18 489.09 265.61"/><polygon class="cls-9" points="491.71 264.09 489.09 265.61 489.09 210.18 491.71 208.66 491.71 264.09"/><polygon class="cls-8" points="491.71 208.66 489.09 207.15 486.46 208.66 489.09 210.18 491.71 208.66"/><polygon class="cls-7" points="501.39 257.96 498.76 256.45 498.76 201.01 501.39 202.53 501.39 257.96"/><polygon class="cls-9" points="504.01 256.45 501.39 257.96 501.39 202.53 504.01 201.01 504.01 256.45"/><polygon class="cls-8" points="504.01 201.01 501.39 199.5 498.76 201.01 501.39 202.53 504.01 201.01"/><polygon class="cls-7" points="512.84 251.35 510.21 249.84 510.21 194.41 512.84 195.92 512.84 251.35"/><polygon class="cls-9" points="515.46 249.84 512.84 251.35 512.84 195.92 515.46 194.41 515.46 249.84"/><polygon class="cls-8" points="515.46 194.41 512.84 192.89 510.21 194.41 512.84 195.92 515.46 194.41"/><polygon class="cls-7" points="522.84 245.04 520.21 243.53 520.21 188.1 522.84 189.61 522.84 245.04"/><polygon class="cls-9" points="525.46 243.53 522.84 245.04 522.84 189.61 525.46 188.1 525.46 243.53"/><polygon class="cls-8" points="525.46 188.1 522.84 186.58 520.21 188.1 522.84 189.61 525.46 188.1"/><polygon class="cls-7" points="533.74 238.76 531.12 237.25 531.12 181.81 533.74 183.33 533.74 238.76"/><polygon class="cls-9" points="536.37 237.25 533.74 238.76 533.74 183.33 536.37 181.81 536.37 237.25"/><polygon class="cls-8" points="536.37 181.81 533.74 180.3 531.12 181.81 533.74 183.33 536.37 181.81"/><polygon class="cls-7" points="544.48 232.29 541.86 230.77 541.86 175.34 544.48 176.86 544.48 232.29"/><polygon class="cls-9" points="547.1 230.77 544.48 232.29 544.48 176.86 547.1 175.34 547.1 230.77"/><polygon class="cls-8" points="547.1 175.34 544.48 173.83 541.86 175.34 544.48 176.86 547.1 175.34"/><polygon class="cls-7" points="555 227 552.38 225.48 552.38 170.05 555 171.57 555 227"/><polygon class="cls-9" points="557.63 225.48 555 227 555 171.57 557.63 170.05 557.63 225.48"/><polygon class="cls-8" points="557.63 170.05 555 168.54 552.38 170.05 555 171.57 557.63 170.05"/><polygon class="cls-7" points="566.74 219.79 564.12 218.27 564.12 162.84 566.74 164.36 566.74 219.79"/><polygon class="cls-9" points="569.37 218.27 566.74 219.79 566.74 164.36 569.37 162.84 569.37 218.27"/><polygon class="cls-8" points="569.37 162.84 566.74 161.33 564.12 162.84 566.74 164.36 569.37 162.84"/><polygon class="cls-9" points="580.14 160.42 425.26 249.84 425.26 238.54 580.14 149.13 580.14 160.42"/><polygon class="cls-8" points="416.8 233.65 571.67 144.23 580.14 149.12 425.27 238.54 416.8 233.65"/><polygon class="cls-7" points="425.26 249.84 416.8 244.94 416.8 233.65 425.26 238.54 425.26 249.84"/><polygon class="cls-6" points="482.52 109.06 327.64 198.47 327.64 187.18 482.52 97.76 482.52 109.06"/><polygon class="cls-8" points="319.18 182.28 474.05 92.86 482.52 97.76 327.65 187.17 319.18 182.28"/><polygon class="cls-7" points="327.64 198.47 319.18 193.58 319.18 182.28 327.64 187.18 327.64 198.47"/><polygon class="cls-6" points="329.57 295.99 317.98 302.68 317.98 179.55 329.57 172.86 329.57 295.99"/><polygon class="cls-7" points="317.98 302.68 306.39 295.99 306.39 172.86 317.98 179.55 317.98 302.68"/><polygon class="cls-8" points="329.57 172.86 317.98 166.17 306.39 172.86 317.98 179.55 329.57 172.86"/><polygon class="cls-7" points="404.88 318.98 319.18 269.5 319.18 259.67 404.88 309.15 404.88 318.98"/><polygon class="cls-8" points="404.88 309.13 319.18 259.65 327.69 254.73 413.39 304.21 404.88 309.13"/><polygon class="cls-6" points="413.39 314.06 404.88 318.98 404.88 309.14 413.39 304.22 413.39 314.06"/><polygon class="cls-7" points="332.66 263.59 329.57 261.81 329.57 196.55 332.66 198.34 332.66 263.59"/><polygon class="cls-9" points="335.75 261.81 332.66 263.59 332.66 198.34 335.75 196.55 335.75 261.81"/><polygon class="cls-8" points="335.75 196.55 332.66 194.77 329.57 196.55 332.66 198.34 335.75 196.55"/><polygon class="cls-7" points="346.59 271.55 343.5 269.76 343.5 204.51 346.59 206.29 346.59 271.55"/><polygon class="cls-9" points="349.68 269.76 346.59 271.55 346.59 206.29 349.68 204.51 349.68 269.76"/><polygon class="cls-8" points="349.68 204.51 346.59 202.72 343.5 204.51 346.59 206.29 349.68 204.51"/><polygon class="cls-7" points="361.54 279.24 358.45 277.45 358.45 212.2 361.54 213.98 361.54 279.24"/><polygon class="cls-9" points="364.63 277.45 361.54 279.24 361.54 213.98 364.63 212.2 364.63 277.45"/><polygon class="cls-8" points="364.63 212.2 361.54 210.41 358.45 212.2 361.54 213.98 364.63 212.2"/><polygon class="cls-7" points="376.27 288.89 373.19 287.1 373.19 221.85 376.27 223.63 376.27 288.89"/><polygon class="cls-9" points="379.37 287.1 376.27 288.89 376.27 223.63 379.37 221.85 379.37 287.1"/><polygon class="cls-8" points="379.37 221.85 376.27 220.06 373.19 221.85 376.27 223.63 379.37 221.85"/><polygon class="cls-7" points="392.5 298 389.42 296.22 389.42 230.96 392.5 232.75 392.5 298"/><polygon class="cls-9" points="395.6 296.22 392.5 298 392.5 232.75 395.6 230.96 395.6 296.22"/><polygon class="cls-8" points="395.6 230.96 392.5 229.18 389.42 230.96 392.5 232.75 395.6 230.96"/><polygon class="cls-7" points="404.88 243 319.18 193.52 319.18 183.69 404.88 233.17 404.88 243"/><polygon class="cls-8" points="404.88 233.15 319.18 183.67 327.69 178.75 413.39 228.23 404.88 233.15"/><polygon class="cls-6" points="413.39 238.08 404.88 243 404.88 233.16 413.39 228.24 413.39 238.08"/><polygon class="cls-6" points="426.76 350.86 415.17 357.55 415.17 234.42 426.76 227.73 426.76 350.86"/><polygon class="cls-7" points="415.17 357.55 403.58 350.86 403.58 227.73 415.17 234.42 415.17 357.55"/><polygon class="cls-8" points="426.76 227.73 415.17 221.03 403.58 227.73 415.17 234.42 426.76 227.73"/></g></svg>