<svg xmlns="http://www.w3.org/2000/svg" viewBox="0 0 378.74 87.1"><defs><style>.cls-1{fill:#fff;}</style></defs><title>Fichier 1</title><g id="Calque_2" data-name="Calque 2"><g id="Calque_1-2" data-name="Calque 1"><path class="cls-1" d="M93.37,79.34H85.21v2.6a4.69,4.69,0,0,1-1.33,3.69c-.88.78-2.4,1.18-4.57,1.18a5.48,5.48,0,0,1-2.26-.4,3.76,3.76,0,0,1-1.54-1.32,6.77,6.77,0,0,1-1-2.73A43.29,43.29,0,0,1,74,78q-.16-2.54-.17-6.42a25.59,25.59,0,0,1,.71-6.21,17.47,17.47,0,0,1,1.92-4.79,17.89,17.89,0,0,1,2.73-3.47,12.08,12.08,0,0,1,3.31-2.33A19.11,19.11,0,0,1,86,53.57a14.17,14.17,0,0,1,3.42-.42,14.87,14.87,0,0,1,4.07.57,14,14,0,0,1,4.08,1.94,14.59,14.59,0,0,1,3.61,3.41,16.43,16.43,0,0,1,2.53,5.28,24.87,24.87,0,0,1,1,7.27,71.41,71.41,0,0,1-.47,9.61,8.49,8.49,0,0,1-1.57,4.35,4.38,4.38,0,0,1-3.42,1.23c-2.16,0-3.68-.4-4.57-1.18a4.72,4.72,0,0,1-1.32-3.69Zm-4-18.18a3.79,3.79,0,0,0-3.12,1.23c-.67.82-1,2.27-1,4.37v5.8h8.16v-5.9a9.4,9.4,0,0,0-.49-3.31,3.13,3.13,0,0,0-1.36-1.72A4.43,4.43,0,0,0,89.34,61.16Z"/><path class="cls-1" d="M139,68.82,132.87,81.4a6.18,6.18,0,0,1-1.67,2.24,3.42,3.42,0,0,1-2.11.66,3.6,3.6,0,0,1-2.66-1.1,23.47,23.47,0,0,1-2.8-4l-5.7-10.37V82.73a4.31,4.31,0,0,1-1,3.09,3.84,3.84,0,0,1-2.88,1,4.35,4.35,0,0,1-3.14-1c-.66-.64-1-1.89-1-3.76V60.67a8.33,8.33,0,0,1,1.72-5.7q1.73-1.92,5.8-1.92a6.28,6.28,0,0,1,2.66.52,4.71,4.71,0,0,1,1.69,1.18A9.72,9.72,0,0,1,123,56.39l6.58,14.4,7-14.15q1.81-3.54,6.53-3.54a8.6,8.6,0,0,1,3.79.76,5.61,5.61,0,0,1,2.48,2.46,9,9,0,0,1,.91,4.25V81.94c0,3.25-2.08,4.87-6.15,4.87a5.32,5.32,0,0,1-3.61-1.21A5,5,0,0,1,139,81.7Z"/><path class="cls-1" d="M181.91,69.32c3,1.8,4.57,4.21,4.57,7.22a9.68,9.68,0,0,1-.76,3.76,10,10,0,0,1-6.22,5.6,16.84,16.84,0,0,1-5.55.86h-11.4c-2,0-3.43-.51-4.3-1.52S157,82.4,157,79.78V59a6.85,6.85,0,0,1,.59-3A4.62,4.62,0,0,1,159.43,54a5.88,5.88,0,0,1,3.12-.79H173.8A12.78,12.78,0,0,1,182,55.88a8.27,8.27,0,0,1,3.27,6.75A10.82,10.82,0,0,1,185,65a6.65,6.65,0,0,1-.66,1.79,6.57,6.57,0,0,1-1,1.38A12,12,0,0,1,181.91,69.32Zm-6.68-6.69a2.85,2.85,0,0,0-1.6-2.82,13.37,13.37,0,0,0-5.33-.76v7.51a16.8,16.8,0,0,0,3.76-.34,4.81,4.81,0,0,0,2.31-1.2A3.25,3.25,0,0,0,175.23,62.63Zm.63,13.12a3.48,3.48,0,0,0-.83-2.5A4.74,4.74,0,0,0,172.62,72a20.21,20.21,0,0,0-4.32-.37v8.51a13,13,0,0,0,5.7-1A3.51,3.51,0,0,0,175.86,75.75Z"/><path class="cls-1" d="M216.89,85.16a20.52,20.52,0,0,1-17.42,0,14.8,14.8,0,0,1-6.16-5.82A17.53,17.53,0,0,1,191,70.2q0-8,4.79-12.65a18.76,18.76,0,0,1,24.84,0q4.81,4.7,4.81,12.65a17.45,17.45,0,0,1-2.33,9.14A14.94,14.94,0,0,1,216.89,85.16Zm-8.7-5.23a3.59,3.59,0,0,0,2.88-1.48,8.88,8.88,0,0,0,1.72-3.63,20.74,20.74,0,0,0,0-9.36A10.12,10.12,0,0,0,211,61.65a3.49,3.49,0,0,0-2.83-1.57,3.41,3.41,0,0,0-2.75,1.57,11.2,11.2,0,0,0-1.77,3.83,18.78,18.78,0,0,0-.59,4.72,18,18,0,0,0,.57,4.62,9.48,9.48,0,0,0,1.77,3.63A3.51,3.51,0,0,0,208.19,79.93Z"/><path class="cls-1" d="M256.45,85.16a19.18,19.18,0,0,1-8.73,1.94A19,19,0,0,1,239,85.16a14.76,14.76,0,0,1-6.17-5.82,17.53,17.53,0,0,1-2.31-9.14q0-8,4.79-12.65a18.76,18.76,0,0,1,24.84,0Q265,62.25,265,70.2a17.35,17.35,0,0,1-2.33,9.14A14.92,14.92,0,0,1,256.45,85.16Zm-8.7-5.23a3.59,3.59,0,0,0,2.87-1.48,8.75,8.75,0,0,0,1.72-3.63,19.52,19.52,0,0,0,.52-4.62,20.13,20.13,0,0,0-.54-4.74,10,10,0,0,0-1.75-3.81,3.48,3.48,0,0,0-2.82-1.57A3.38,3.38,0,0,0,245,61.65a10.84,10.84,0,0,0-1.77,3.83,19.26,19.26,0,0,0,0,9.34A9.48,9.48,0,0,0,245,78.45,3.51,3.51,0,0,0,247.75,79.93Z"/><path class="cls-1" d="M281.85,79.44q0,7.36-5.75,7.37a5.36,5.36,0,0,1-4.25-1.55q-1.35-1.55-1.35-5.48V59.05a5.75,5.75,0,0,1,1.55-4.35,5.57,5.57,0,0,1,4.05-1.5h10.32q6,0,9.78,2.82a8.74,8.74,0,0,1,3.73,7.25,8.64,8.64,0,0,1-1.4,5.23,8.08,8.08,0,0,1-4.5,2.78,6.55,6.55,0,0,1,4.38,2.29,7.47,7.47,0,0,1,2,5.33,15.66,15.66,0,0,1-.61,5,3.94,3.94,0,0,1-1.75,2.34,7.06,7.06,0,0,1-3.19.59,6.24,6.24,0,0,1-4.25-1.21,4.65,4.65,0,0,1-1.35-3.66,14.62,14.62,0,0,0-.59-4.69,3.72,3.72,0,0,0-1.52-2.14,5.83,5.83,0,0,0-2.61-.49l-2.7,0Zm7.52-16.51a3.34,3.34,0,0,0-1.72-3.25,13.85,13.85,0,0,0-5.8-.88v8.5a12.8,12.8,0,0,0,5.67-1A3.5,3.5,0,0,0,289.37,62.93Z"/><path class="cls-1" d="M330.64,85.16a20.52,20.52,0,0,1-17.42,0,14.82,14.82,0,0,1-6.17-5.82,17.53,17.53,0,0,1-2.31-9.14q0-8,4.8-12.65a18.75,18.75,0,0,1,24.83,0q4.81,4.7,4.82,12.65a17.36,17.36,0,0,1-2.34,9.14A14.86,14.86,0,0,1,330.64,85.16Zm-8.7-5.23a3.61,3.61,0,0,0,2.88-1.48,9,9,0,0,0,1.72-3.63,21.13,21.13,0,0,0,0-9.36,10.12,10.12,0,0,0-1.74-3.81,3.51,3.51,0,0,0-2.83-1.57,3.39,3.39,0,0,0-2.75,1.57,10.84,10.84,0,0,0-1.77,3.83,18.78,18.78,0,0,0-.59,4.72,18,18,0,0,0,.57,4.62,9.2,9.2,0,0,0,1.77,3.63A3.49,3.49,0,0,0,321.94,79.93Z"/><path class="cls-1" d="M370.19,85.16a20.52,20.52,0,0,1-17.42,0,14.8,14.8,0,0,1-6.16-5.82,17.53,17.53,0,0,1-2.31-9.14q0-8,4.79-12.65a18.76,18.76,0,0,1,24.84,0q4.81,4.7,4.81,12.65a17.45,17.45,0,0,1-2.33,9.14A14.94,14.94,0,0,1,370.19,85.16Zm-8.69-5.23a3.59,3.59,0,0,0,2.87-1.48,8.88,8.88,0,0,0,1.72-3.63,20.93,20.93,0,0,0,0-9.36,10.29,10.29,0,0,0-1.75-3.81,3.48,3.48,0,0,0-2.82-1.57,3.41,3.41,0,0,0-2.76,1.57A11,11,0,0,0,357,65.48a18.33,18.33,0,0,0-.59,4.72,18.05,18.05,0,0,0,.56,4.62,9.48,9.48,0,0,0,1.77,3.63A3.51,3.51,0,0,0,361.5,79.93Z"/><path class="cls-1" d="M62.83,66c-2.39-2-19.5-17.38-19.5-17.38s11.64-13,18.1-18c0,0,2.28-.92.48-3.86s-9.67-13.7-12.6-15.06a3.31,3.31,0,0,0-4.4,1.57L30,29.65S30,7.93,27,2.84,7.34.63,3.22,2.77c0,0-1.81-.23-2.13,3S6.23,65.23.16,80c0,0-1,2.91,1.9,3.37s24.81.78,24.81.78,1.87.66,2.06-2,.73-12.42.73-12.42S48,78.83,54,84.24c1.77,2,9.73-13.15,9.73-13.15S65.22,68,62.83,66ZM33.55,67.17C31,63.79,25.1,69.29,26.14,71s1.13,5.64,1.13,5.64-11.67-.14-14.58-.94.06-6.21,8.62-3.47c0,0-5-2.9-3.66-5.52,0,0-5.63-1.62-4.89-13a2,2,0,0,0-.69-.44c0,.3-.14.29-.38,0-.29.07-.56.37-.69,1.15-.37,2.14-1.72.67-1.15-1.93a2.43,2.43,0,0,1,2.05-2c-.46-.77-1.71-2.7-2.54-2.53-1,.22-2.08.49-2.65-.21s.67-1,.84-1.82a1.7,1.7,0,0,1,.93-1.18c-2.37-3-.33-4.12-.33-4.12a1.91,1.91,0,0,0,1,1.08,3.58,3.58,0,0,1,1.25,1.62c.78-2.74,2.66-2.13,2.66-2.13s-.95.38-.43,1.62a3,3,0,0,1-.47,2.86c-.38.54-2.55-1,1.29,1.42l.45.27c.42-3.72.87-9.51-.35-10-1.8-.65-6.06-.38-5-3.68s2.21-.85,3.47-2.13,1.79-2.52,3.79-1.72c0,0-1.7-8.13,4.39-8.68a2.16,2.16,0,0,0,0,2.6c1,1.24,2.2,2.23,1.13,5.53,0,0,4.18-4.31,8-1,0,0-3.15,1.82-2.93,3.31s-2.45,4.12-4.38,4.57,3.22,12.08,9.26,14.31,8.38,6.25,10.91,10.91c2.33,4.29,4.17,14.4,11.09,18.09C48.63,77.54,37.38,72.26,33.55,67.17Z"/></g></g></svg>