<?xml version="1.0" encoding="UTF-8" standalone="no"?><!DOCTYPE svg PUBLIC "-//W3C//DTD SVG 1.1//EN" "http://www.w3.org/Graphics/SVG/1.1/DTD/svg11.dtd"><svg width="100%" height="100%" viewBox="0 0 65 85" version="1.1" xmlns="http://www.w3.org/2000/svg" xmlns:xlink="http://www.w3.org/1999/xlink" xml:space="preserve" style="fill-rule:evenodd;clip-rule:evenodd;stroke-linejoin:round;stroke-miterlimit:1.41421;"><path d="M62.837,66.002c-2.39,-2 -19.5,-17.38 -19.5,-17.38c0,0 11.64,-13 18.1,-18c0,0 2.28,-0.92 0.48,-3.86c-1.8,-2.94 -9.67,-13.7 -12.6,-15.06c-1.638,-0.773 -3.621,-0.065 -4.4,1.57l-14.91,16.38c0,0 0,-21.72 -3,-26.81c-3,-5.09 -19.66,-2.21 -23.78,-0.07c0,0 -1.81,-0.23 -2.13,3c-0.32,3.23 5.14,59.46 -0.93,74.23c0,0 -1,2.91 1.9,3.37c2.9,0.46 24.81,0.78 24.81,0.78c0,0 1.87,0.66 2.06,-2c0.19,-2.66 0.73,-12.42 0.73,-12.42c0,0 18.34,9.1 24.34,14.51c1.77,2 9.73,-13.15 9.73,-13.15c0,0 1.49,-3.09 -0.9,-5.09Zm-29.28,1.17c-2.55,-3.38 -8.45,2.12 -7.41,3.83c1.04,1.71 1.13,5.64 1.13,5.64c0,0 -11.67,-0.14 -14.58,-0.94c-2.91,-0.8 0.06,-6.21 8.62,-3.47c0,0 -5,-2.9 -3.66,-5.52c0,0 -5.63,-1.62 -4.89,-13c-0.198,-0.193 -0.433,-0.343 -0.69,-0.44c0,0.3 -0.14,0.29 -0.38,0c-0.29,0.07 -0.56,0.37 -0.69,1.15c-0.37,2.14 -1.72,0.67 -1.15,-1.93c0.175,-1.039 1.007,-1.85 2.05,-2c-0.46,-0.77 -1.71,-2.7 -2.54,-2.53c-1,0.22 -2.08,0.49 -2.65,-0.21c-0.57,-0.7 0.67,-1 0.84,-1.82c0.109,-0.516 0.454,-0.953 0.93,-1.18c-2.37,-3 -0.33,-4.12 -0.33,-4.12c0.175,0.479 0.536,0.868 1,1.08c0.565,0.407 0.999,0.97 1.25,1.62c0.78,-2.74 2.66,-2.13 2.66,-2.13c0,0 -0.95,0.38 -0.43,1.62c0.344,0.97 0.166,2.051 -0.47,2.86c-0.38,0.54 -2.55,-1 1.29,1.42l0.45,0.27c0.42,-3.72 0.87,-9.51 -0.35,-10c-1.8,-0.65 -6.06,-0.38 -5,-3.68c1.06,-3.3 2.21,-0.85 3.47,-2.13c1.26,-1.28 1.79,-2.52 3.79,-1.72c0,0 -1.7,-8.13 4.39,-8.68c-0.579,0.767 -0.579,1.832 0,2.6c1,1.24 2.2,2.23 1.13,5.53c0,0 4.18,-4.31 8,-1c0,0 -3.15,1.82 -2.93,3.31c0.22,1.49 -2.45,4.12 -4.38,4.57c-1.93,0.45 3.22,12.08 9.26,14.31c6.04,2.23 8.38,6.25 10.91,10.91c2.33,4.29 4.17,14.4 11.09,18.09c-4.65,-1.94 -15.9,-7.22 -19.73,-12.31Z" style="fill:#fff;fill-rule:nonzero;"/></svg>