<?xml version="1.0" encoding="UTF-8" standalone="no"?><!DOCTYPE svg PUBLIC "-//W3C//DTD SVG 1.1//EN" "http://www.w3.org/Graphics/SVG/1.1/DTD/svg11.dtd"><svg width="100%" height="100%" viewBox="0 0 379 88" version="1.1" xmlns="http://www.w3.org/2000/svg" xmlns:xlink="http://www.w3.org/1999/xlink" xml:space="preserve" style="fill-rule:evenodd;clip-rule:evenodd;stroke-linejoin:round;stroke-miterlimit:1.41421;"><path d="M93.377,79.342l-8.16,0l0,2.6c0.117,1.364 -0.37,2.714 -1.33,3.69c-0.88,0.78 -2.4,1.18 -4.57,1.18c-0.774,0.027 -1.544,-0.109 -2.26,-0.4c-0.625,-0.291 -1.158,-0.747 -1.54,-1.32c-0.527,-0.827 -0.869,-1.759 -1,-2.73c-0.244,-1.444 -0.414,-2.899 -0.51,-4.36c-0.107,-1.694 -0.164,-3.834 -0.17,-6.42c-0.018,-2.091 0.22,-4.177 0.71,-6.21c0.399,-1.683 1.046,-3.297 1.92,-4.79c0.763,-1.265 1.68,-2.431 2.73,-3.47c0.964,-0.958 2.083,-1.745 3.31,-2.33c1.124,-0.516 2.297,-0.921 3.5,-1.21c1.118,-0.279 2.267,-0.42 3.42,-0.42c1.376,0 2.746,0.192 4.07,0.57c1.456,0.421 2.834,1.077 4.08,1.94c1.389,0.922 2.61,2.075 3.61,3.41c1.152,1.594 2.009,3.383 2.53,5.28c0.691,2.36 1.028,4.81 1,7.27c0.059,3.21 -0.098,6.421 -0.47,9.61c-0.111,1.567 -0.655,3.073 -1.57,4.35c-0.908,0.885 -2.157,1.334 -3.42,1.23c-2.16,0 -3.68,-0.4 -4.57,-1.18c-0.954,-0.98 -1.436,-2.328 -1.32,-3.69l0.01,-2.6Zm-4,-18.18c-1.174,-0.098 -2.329,0.358 -3.12,1.23c-0.67,0.82 -1,2.27 -1,4.37l0,5.8l8.16,0l0,-5.9c0.036,-1.124 -0.13,-2.245 -0.49,-3.31c-0.231,-0.719 -0.715,-1.33 -1.36,-1.72c-0.687,-0.347 -1.452,-0.509 -2.22,-0.47l0.03,0Z" style="fill:#b24592;fill-rule:nonzero;"/><path d="M139.007,68.822l-6.13,12.58c-0.379,0.864 -0.95,1.63 -1.67,2.24c-0.611,0.447 -1.354,0.679 -2.11,0.66c-1.001,0.019 -1.966,-0.38 -2.66,-1.1c-1.07,-1.233 -2.009,-2.573 -2.8,-4l-5.7,-10.37l0,13.9c0.082,1.12 -0.277,2.23 -1,3.09c-0.781,0.716 -1.824,1.078 -2.88,1c-1.137,0.091 -2.266,-0.268 -3.14,-1c-0.66,-0.64 -1,-1.89 -1,-3.76l0,-21.39c-0.149,-2.047 0.464,-4.077 1.72,-5.7c1.153,-1.28 3.086,-1.92 5.8,-1.92c0.914,-0.023 1.821,0.155 2.66,0.52c0.643,0.264 1.22,0.667 1.69,1.18c0.463,0.502 0.872,1.052 1.22,1.64l6.58,14.4l7,-14.15c1.206,-2.36 3.383,-3.54 6.53,-3.54c1.304,-0.038 2.6,0.222 3.79,0.76c1.067,0.535 1.936,1.397 2.48,2.46c0.646,1.321 0.958,2.78 0.91,4.25l0,21.37c0,3.25 -2.08,4.87 -6.15,4.87c-1.311,0.056 -2.598,-0.376 -3.61,-1.21c-1.056,-1.013 -1.616,-2.44 -1.53,-3.9l0,-12.88Z" style="fill:#b24592;fill-rule:nonzero;"/><path d="M181.917,69.322c3,1.8 4.57,4.21 4.57,7.22c0,1.291 -0.259,2.57 -0.76,3.76c-1.155,2.685 -3.43,4.733 -6.22,5.6c-1.789,0.595 -3.665,0.886 -5.55,0.86l-11.4,0c-2,0 -3.43,-0.51 -4.3,-1.52c-0.87,-1.01 -1.25,-2.84 -1.25,-5.46l0,-20.78c-0.032,-1.032 0.169,-2.057 0.59,-3c0.398,-0.836 1.04,-1.533 1.84,-2c0.946,-0.549 2.026,-0.822 3.12,-0.79l11.25,0c2.959,-0.087 5.859,0.857 8.2,2.67c2.104,1.596 3.321,4.109 3.27,6.75c-0.003,0.797 -0.093,1.592 -0.27,2.37c-0.133,0.625 -0.356,1.228 -0.66,1.79c-0.272,0.501 -0.609,0.965 -1,1.38c-0.447,0.419 -0.925,0.804 -1.43,1.15Zm-6.68,-6.69c0.105,-1.179 -0.535,-2.306 -1.6,-2.82c-1.707,-0.612 -3.521,-0.871 -5.33,-0.76l0,7.51c1.262,0.028 2.523,-0.086 3.76,-0.34c0.865,-0.18 1.665,-0.596 2.31,-1.2c0.598,-0.647 0.909,-1.51 0.86,-2.39l0,0Zm0.63,13.12c0.061,-0.91 -0.237,-1.808 -0.83,-2.5c-0.665,-0.643 -1.502,-1.077 -2.41,-1.25c-1.423,-0.278 -2.871,-0.402 -4.32,-0.37l0,8.51c1.951,0.099 3.899,-0.243 5.7,-1c1.24,-0.655 1.974,-1.992 1.86,-3.39l0,0Z" style="fill:#b24592;fill-rule:nonzero;"/><path d="M216.897,85.162c-5.516,2.585 -11.905,2.585 -17.42,0c-2.577,-1.298 -4.718,-3.322 -6.16,-5.82c-1.59,-2.779 -2.389,-5.94 -2.31,-9.14c0,-5.334 1.596,-9.55 4.79,-12.65c7.06,-6.237 17.779,-6.237 24.84,0c3.206,3.133 4.81,7.35 4.81,12.65c0.077,3.202 -0.73,6.365 -2.33,9.14c-1.465,2.502 -3.627,4.525 -6.22,5.82Zm-8.7,-5.23c1.139,-0.008 2.21,-0.558 2.88,-1.48c0.843,-1.063 1.431,-2.305 1.72,-3.63c0.713,-3.079 0.713,-6.281 0,-9.36c-0.323,-1.382 -0.933,-2.68 -1.79,-3.81c-0.629,-0.955 -1.688,-1.542 -2.83,-1.57c-1.118,0.04 -2.148,0.628 -2.75,1.57c-0.828,1.153 -1.428,2.453 -1.77,3.83c-0.396,1.542 -0.595,3.128 -0.59,4.72c-0.011,1.558 0.18,3.111 0.57,4.62c0.322,1.323 0.926,2.561 1.77,3.63c0.642,0.907 1.679,1.456 2.79,1.48l0,0Z" style="fill:#b24592;fill-rule:nonzero;"/><path d="M256.457,85.162c-2.717,1.325 -5.708,1.99 -8.73,1.94c-3.02,0.055 -6.009,-0.61 -8.72,-1.94c-2.582,-1.295 -4.728,-3.319 -6.17,-5.82c-1.59,-2.779 -2.389,-5.94 -2.31,-9.14c0,-5.334 1.596,-9.55 4.79,-12.65c7.06,-6.237 17.779,-6.237 24.84,0c3.233,3.133 4.85,7.35 4.85,12.65c0.082,3.203 -0.725,6.367 -2.33,9.14c-1.464,2.503 -3.626,4.526 -6.22,5.82Zm-8.7,-5.23c1.136,-0.011 2.202,-0.561 2.87,-1.48c0.847,-1.06 1.436,-2.303 1.72,-3.63c0.356,-1.514 0.531,-3.065 0.52,-4.62c0.008,-1.596 -0.173,-3.187 -0.54,-4.74c-0.308,-1.38 -0.904,-2.678 -1.75,-3.81c-0.626,-0.953 -1.681,-1.541 -2.82,-1.57c-1.12,0.035 -2.151,0.624 -2.75,1.57c-0.836,1.148 -1.437,2.45 -1.77,3.83c-0.767,3.066 -0.767,6.274 0,9.34c0.322,1.323 0.926,2.561 1.77,3.63c0.634,0.896 1.653,1.444 2.75,1.48Z" style="fill:#b24592;fill-rule:nonzero;"/><path d="M281.857,79.442c0,4.906 -1.917,7.363 -5.75,7.37c-1.575,0.135 -3.133,-0.432 -4.25,-1.55c-0.9,-1.034 -1.35,-2.86 -1.35,-5.48l0,-20.73c-0.114,-1.602 0.448,-3.181 1.55,-4.35c1.092,-1.024 2.553,-1.565 4.05,-1.5l10.32,0c4,0 7.26,0.94 9.78,2.82c2.361,1.651 3.759,4.368 3.73,7.25c0.105,1.848 -0.386,3.682 -1.4,5.23c-1.146,1.405 -2.731,2.384 -4.5,2.78c1.702,0.162 3.275,0.984 4.38,2.29c1.343,1.442 2.063,3.36 2,5.33c0.067,1.688 -0.139,3.377 -0.61,5c-0.262,0.975 -0.889,1.813 -1.75,2.34c-1.003,0.441 -2.096,0.643 -3.19,0.59c-1.517,0.128 -3.029,-0.302 -4.25,-1.21c-0.965,-0.963 -1.459,-2.302 -1.35,-3.66c0.059,-1.585 -0.141,-3.169 -0.59,-4.69c-0.23,-0.874 -0.771,-1.635 -1.52,-2.14c-0.821,-0.362 -1.714,-0.53 -2.61,-0.49l-2.7,0l0.01,4.8Zm7.52,-16.51c0.128,-1.327 -0.551,-2.61 -1.72,-3.25c-1.849,-0.704 -3.826,-1.004 -5.8,-0.88l0,8.5c1.941,0.101 3.88,-0.241 5.67,-1c1.231,-0.653 1.96,-1.981 1.85,-3.37l0,0Z" style="fill:#b24592;fill-rule:nonzero;"/><path d="M330.647,85.162c-5.516,2.585 -11.905,2.585 -17.42,0c-2.58,-1.298 -4.725,-3.321 -6.17,-5.82c-1.59,-2.779 -2.389,-5.94 -2.31,-9.14c0,-5.334 1.6,-9.55 4.8,-12.65c7.057,-6.236 17.772,-6.236 24.83,0c3.206,3.133 4.813,7.35 4.82,12.65c0.078,3.204 -0.732,6.368 -2.34,9.14c-1.459,2.503 -3.618,4.527 -6.21,5.82Zm-8.7,-5.23c1.139,-0.011 2.208,-0.561 2.88,-1.48c0.839,-1.065 1.427,-2.306 1.72,-3.63c0.699,-3.081 0.699,-6.28 0,-9.36c-0.308,-1.378 -0.901,-2.675 -1.74,-3.81c-0.631,-0.952 -1.689,-1.539 -2.83,-1.57c-1.119,0.037 -2.15,0.625 -2.75,1.57c-0.836,1.148 -1.437,2.45 -1.77,3.83c-0.396,1.542 -0.595,3.128 -0.59,4.72c-0.011,1.558 0.18,3.111 0.57,4.62c0.313,1.326 0.918,2.566 1.77,3.63c0.63,0.895 1.645,1.444 2.74,1.48l0,0Z" style="fill:#b24592;fill-rule:nonzero;"/><path d="M370.197,85.162c-5.516,2.585 -11.905,2.585 -17.42,0c-2.577,-1.298 -4.718,-3.322 -6.16,-5.82c-1.59,-2.779 -2.389,-5.94 -2.31,-9.14c0,-5.334 1.596,-9.55 4.79,-12.65c7.06,-6.237 17.779,-6.237 24.84,0c3.206,3.133 4.81,7.35 4.81,12.65c0.077,3.202 -0.73,6.365 -2.33,9.14c-1.465,2.502 -3.627,4.525 -6.22,5.82l0,0Zm-8.69,-5.23c1.136,-0.011 2.202,-0.561 2.87,-1.48c0.843,-1.063 1.431,-2.305 1.72,-3.63c0.706,-3.08 0.706,-6.28 0,-9.36c-0.316,-1.377 -0.912,-2.674 -1.75,-3.81c-0.626,-0.953 -1.681,-1.541 -2.82,-1.57c-1.122,0.037 -2.156,0.625 -2.76,1.57c-0.828,1.151 -1.426,2.452 -1.76,3.83c-0.401,1.541 -0.6,3.128 -0.59,4.72c-0.014,1.557 0.174,3.11 0.56,4.62c0.322,1.323 0.926,2.561 1.77,3.63c0.636,0.898 1.659,1.447 2.76,1.48l0,0Z" style="fill:#b24592;fill-rule:nonzero;"/><path d="M62.837,66.002c-2.39,-2 -19.5,-17.38 -19.5,-17.38c0,0 11.64,-13 18.1,-18c0,0 2.28,-0.92 0.48,-3.86c-1.8,-2.94 -9.67,-13.7 -12.6,-15.06c-1.638,-0.773 -3.621,-0.065 -4.4,1.57l-14.91,16.38c0,0 0,-21.72 -3,-26.81c-3,-5.09 -19.66,-2.21 -23.78,-0.07c0,0 -1.81,-0.23 -2.13,3c-0.32,3.23 5.14,59.46 -0.93,74.23c0,0 -1,2.91 1.9,3.37c2.9,0.46 24.81,0.78 24.81,0.78c0,0 1.87,0.66 2.06,-2c0.19,-2.66 0.73,-12.42 0.73,-12.42c0,0 18.34,9.1 24.34,14.51c1.77,2 9.73,-13.15 9.73,-13.15c0,0 1.49,-3.09 -0.9,-5.09Zm-29.28,1.17c-2.55,-3.38 -8.45,2.12 -7.41,3.83c1.04,1.71 1.13,5.64 1.13,5.64c0,0 -11.67,-0.14 -14.58,-0.94c-2.91,-0.8 0.06,-6.21 8.62,-3.47c0,0 -5,-2.9 -3.66,-5.52c0,0 -5.63,-1.62 -4.89,-13c-0.198,-0.193 -0.433,-0.343 -0.69,-0.44c0,0.3 -0.14,0.29 -0.38,0c-0.29,0.07 -0.56,0.37 -0.69,1.15c-0.37,2.14 -1.72,0.67 -1.15,-1.93c0.175,-1.039 1.007,-1.85 2.05,-2c-0.46,-0.77 -1.71,-2.7 -2.54,-2.53c-1,0.22 -2.08,0.49 -2.65,-0.21c-0.57,-0.7 0.67,-1 0.84,-1.82c0.109,-0.516 0.454,-0.953 0.93,-1.18c-2.37,-3 -0.33,-4.12 -0.33,-4.12c0.175,0.479 0.536,0.868 1,1.08c0.565,0.407 0.999,0.97 1.25,1.62c0.78,-2.74 2.66,-2.13 2.66,-2.13c0,0 -0.95,0.38 -0.43,1.62c0.344,0.97 0.166,2.051 -0.47,2.86c-0.38,0.54 -2.55,-1 1.29,1.42l0.45,0.27c0.42,-3.72 0.87,-9.51 -0.35,-10c-1.8,-0.65 -6.06,-0.38 -5,-3.68c1.06,-3.3 2.21,-0.85 3.47,-2.13c1.26,-1.28 1.79,-2.52 3.79,-1.72c0,0 -1.7,-8.13 4.39,-8.68c-0.579,0.767 -0.579,1.832 0,2.6c1,1.24 2.2,2.23 1.13,5.53c0,0 4.18,-4.31 8,-1c0,0 -3.15,1.82 -2.93,3.31c0.22,1.49 -2.45,4.12 -4.38,4.57c-1.93,0.45 3.22,12.08 9.26,14.31c6.04,2.23 8.38,6.25 10.91,10.91c2.33,4.29 4.17,14.4 11.09,18.09c-4.65,-1.94 -15.9,-7.22 -19.73,-12.31Z" style="fill:#b24592;fill-rule:nonzero;"/></svg>